<svg width="128" height="128" viewBox="0 0 128 128" fill="none" xmlns="http://www.w3.org/2000/svg">
<g filter="url(#filter0_i_93_24)">
<path d="M26.5952 54.16C24.7285 54.16 22.9952 53.88 21.3952 53.32C19.8218 52.7333 18.5952 52 17.7152 51.12C17.3152 50.6933 17.1418 50.2133 17.1952 49.68C17.2752 49.12 17.5418 48.6667 17.9952 48.32C18.5285 47.8933 19.0485 47.72 19.5552 47.8C20.0885 47.8533 20.5418 48.08 20.9152 48.48C21.3685 48.9867 22.0885 49.4667 23.0752 49.92C24.0885 50.3467 25.2085 50.56 26.4352 50.56C27.9818 50.56 29.1552 50.3067 29.9552 49.8C30.7818 49.2933 31.2085 48.64 31.2352 47.84C31.2618 47.04 30.8752 46.3467 30.0752 45.76C29.3018 45.1733 27.8752 44.6933 25.7952 44.32C23.1018 43.7867 21.1418 42.9867 19.9152 41.92C18.7152 40.8533 18.1152 39.5467 18.1152 38C18.1152 36.64 18.5152 35.52 19.3152 34.64C20.1152 33.7333 21.1418 33.0667 22.3952 32.64C23.6485 32.1867 24.9552 31.96 26.3152 31.96C28.0752 31.96 29.6352 32.24 30.9952 32.8C32.3552 33.36 33.4352 34.1333 34.2352 35.12C34.6085 35.5467 34.7818 36 34.7552 36.48C34.7285 36.9333 34.5018 37.32 34.0752 37.64C33.6485 37.9333 33.1418 38.0267 32.5552 37.92C31.9685 37.8133 31.4752 37.5733 31.0752 37.2C30.4085 36.56 29.6885 36.12 28.9152 35.88C28.1418 35.64 27.2485 35.52 26.2352 35.52C25.0618 35.52 24.0618 35.72 23.2352 36.12C22.4352 36.52 22.0352 37.1067 22.0352 37.88C22.0352 38.36 22.1552 38.8 22.3952 39.2C22.6618 39.5733 23.1685 39.92 23.9152 40.24C24.6618 40.5333 25.7552 40.8267 27.1952 41.12C29.1952 41.52 30.7685 42.0267 31.9152 42.64C33.0885 43.2533 33.9285 43.9733 34.4352 44.8C34.9418 45.6 35.1952 46.5333 35.1952 47.6C35.1952 48.8267 34.8618 49.9333 34.1952 50.92C33.5552 51.9067 32.5952 52.6933 31.3152 53.28C30.0618 53.8667 28.4885 54.16 26.5952 54.16ZM42.3939 63.36C41.8072 63.36 41.3139 63.16 40.9139 62.76C40.5406 62.3867 40.3539 61.9067 40.3539 61.32V43.08C40.3806 40.9733 40.8739 39.08 41.8339 37.4C42.7939 35.72 44.1006 34.4 45.7539 33.44C47.4072 32.4533 49.2739 31.96 51.3539 31.96C53.4606 31.96 55.3406 32.4533 56.9939 33.44C58.6472 34.4 59.9539 35.72 60.9139 37.4C61.9006 39.08 62.3939 40.9733 62.3939 43.08C62.3939 45.1867 61.9406 47.08 61.0339 48.76C60.1539 50.4133 58.9406 51.7333 57.3939 52.72C55.8472 53.68 54.1006 54.16 52.1539 54.16C50.5806 54.16 49.1272 53.84 47.7939 53.2C46.4872 52.5333 45.3672 51.64 44.4339 50.52V61.32C44.4339 61.9067 44.2472 62.3867 43.8739 62.76C43.5006 63.16 43.0072 63.36 42.3939 63.36ZM51.3539 50.56C52.7139 50.56 53.9272 50.24 54.9939 49.6C56.0606 48.9333 56.9006 48.04 57.5139 46.92C58.1539 45.7733 58.4739 44.4933 58.4739 43.08C58.4739 41.64 58.1539 40.36 57.5139 39.24C56.9006 38.0933 56.0606 37.2 54.9939 36.56C53.9272 35.8933 52.7139 35.56 51.3539 35.56C50.0206 35.56 48.8072 35.8933 47.7139 36.56C46.6472 37.2 45.8072 38.0933 45.1939 39.24C44.5806 40.36 44.2739 41.64 44.2739 43.08C44.2739 44.4933 44.5806 45.7733 45.1939 46.92C45.8072 48.04 46.6472 48.9333 47.7139 49.6C48.8072 50.24 50.0206 50.56 51.3539 50.56ZM78.7589 54.16C76.5456 54.16 74.5722 53.6933 72.8389 52.76C71.1322 51.8 69.7856 50.4933 68.7989 48.84C67.8389 47.16 67.3589 45.24 67.3589 43.08C67.3589 40.8933 67.8122 38.9733 68.7189 37.32C69.6522 35.64 70.9322 34.3333 72.5589 33.4C74.1856 32.44 76.0522 31.96 78.1589 31.96C80.2389 31.96 82.0256 32.4267 83.5189 33.36C85.0122 34.2667 86.1456 35.5333 86.9189 37.16C87.7189 38.76 88.1189 40.6133 88.1189 42.72C88.1189 43.2267 87.9456 43.6533 87.5989 44C87.2522 44.32 86.8122 44.48 86.2789 44.48H70.1589V41.28H86.1589L84.5189 42.4C84.4922 41.0667 84.2256 39.88 83.7189 38.84C83.2122 37.7733 82.4922 36.9333 81.5589 36.32C80.6256 35.7067 79.4922 35.4 78.1589 35.4C76.6389 35.4 75.3322 35.7333 74.2389 36.4C73.1722 37.0667 72.3589 37.9867 71.7989 39.16C71.2389 40.3067 70.9589 41.6133 70.9589 43.08C70.9589 44.5467 71.2922 45.8533 71.9589 47C72.6256 48.1467 73.5456 49.0533 74.7189 49.72C75.8922 50.3867 77.2389 50.72 78.7589 50.72C79.5856 50.72 80.4256 50.5733 81.2789 50.28C82.1589 49.96 82.8656 49.6 83.3989 49.2C83.7989 48.9067 84.2256 48.76 84.6789 48.76C85.1589 48.7333 85.5722 48.8667 85.9189 49.16C86.3722 49.56 86.6122 50 86.6389 50.48C86.6656 50.96 86.4522 51.3733 85.9989 51.72C85.0922 52.44 83.9589 53.0267 82.5989 53.48C81.2656 53.9333 79.9856 54.16 78.7589 54.16ZM102.461 54.16C100.328 54.16 98.4214 53.68 96.7414 52.72C95.0881 51.7333 93.7814 50.4133 92.8214 48.76C91.8881 47.08 91.4214 45.1867 91.4214 43.08C91.4214 40.92 91.8881 39 92.8214 37.32C93.7547 35.64 95.0347 34.3333 96.6614 33.4C98.2881 32.44 100.155 31.96 102.261 31.96C103.835 31.96 105.275 32.2667 106.581 32.88C107.888 33.4667 109.061 34.36 110.101 35.56C110.475 35.9867 110.608 36.4267 110.501 36.88C110.395 37.3333 110.101 37.7333 109.621 38.08C109.248 38.3467 108.835 38.44 108.381 38.36C107.928 38.2533 107.515 38.0133 107.141 37.64C105.835 36.2533 104.208 35.56 102.261 35.56C100.901 35.56 99.7014 35.88 98.6614 36.52C97.6214 37.1333 96.8081 38 96.2214 39.12C95.6347 40.24 95.3414 41.56 95.3414 43.08C95.3414 44.52 95.6347 45.8 96.2214 46.92C96.8347 48.04 97.6747 48.9333 98.7414 49.6C99.8081 50.24 101.048 50.56 102.461 50.56C103.395 50.56 104.208 50.4533 104.901 50.24C105.621 50 106.275 49.64 106.861 49.16C107.288 48.8133 107.728 48.6267 108.181 48.6C108.635 48.5467 109.035 48.6667 109.381 48.96C109.835 49.3333 110.088 49.76 110.141 50.24C110.195 50.6933 110.035 51.1067 109.661 51.48C107.741 53.2667 105.341 54.16 102.461 54.16ZM25.4038 99C24.0704 99 22.8704 98.6667 21.8038 98C20.7371 97.3067 19.8971 96.3733 19.2838 95.2C18.6704 94.0267 18.3638 92.7067 18.3638 91.24V72.16C18.3638 71.5733 18.5504 71.0933 18.9238 70.72C19.2971 70.3467 19.7771 70.16 20.3638 70.16C20.9504 70.16 21.4304 70.3467 21.8038 70.72C22.1771 71.0933 22.3638 71.5733 22.3638 72.16V91.24C22.3638 92.3067 22.6571 93.2 23.2438 93.92C23.8304 94.64 24.5504 95 25.4038 95H26.7638C27.2438 95 27.6438 95.1867 27.9638 95.56C28.3104 95.9333 28.4838 96.4133 28.4838 97C28.4838 97.5867 28.2571 98.0667 27.8038 98.44C27.3771 98.8133 26.8171 99 26.1238 99H25.4038ZM16.5238 81.36C15.9638 81.36 15.5104 81.2 15.1637 80.88C14.8171 80.56 14.6438 80.16 14.6438 79.68C14.6438 79.1467 14.8171 78.72 15.1637 78.4C15.5104 78.08 15.9638 77.92 16.5238 77.92H25.7638C26.3238 77.92 26.7771 78.08 27.1238 78.4C27.4704 78.72 27.6438 79.1467 27.6438 79.68C27.6438 80.16 27.4704 80.56 27.1238 80.88C26.7771 81.2 26.3238 81.36 25.7638 81.36H16.5238ZM35.4584 85.32C35.4584 83.72 35.8451 82.2933 36.6184 81.04C37.4184 79.76 38.4851 78.7467 39.8184 78C41.1518 77.2533 42.6184 76.88 44.2184 76.88C45.8184 76.88 47.0051 77.1467 47.7784 77.68C48.5784 78.1867 48.8851 78.8 48.6984 79.52C48.6184 79.8933 48.4584 80.1867 48.2184 80.4C48.0051 80.5867 47.7518 80.7067 47.4584 80.76C47.1651 80.8133 46.8451 80.8 46.4984 80.72C44.7918 80.3733 43.2584 80.3467 41.8984 80.64C40.5384 80.9333 39.4584 81.48 38.6584 82.28C37.8851 83.08 37.4984 84.0933 37.4984 85.32H35.4584ZM35.4984 99C34.8584 99 34.3651 98.84 34.0184 98.52C33.6718 98.1733 33.4984 97.6667 33.4984 97V79.12C33.4984 78.48 33.6718 77.9867 34.0184 77.64C34.3651 77.2933 34.8584 77.12 35.4984 77.12C36.1651 77.12 36.6584 77.2933 36.9784 77.64C37.3251 77.96 37.4984 78.4533 37.4984 79.12V97C37.4984 97.64 37.3251 98.1333 36.9784 98.48C36.6584 98.8267 36.1651 99 35.4984 99ZM62.1516 99.2C60.3116 99.2 58.6582 98.8133 57.1916 98.04C55.7516 97.24 54.6049 96.08 53.7516 94.56C52.9249 93.04 52.5116 91.1733 52.5116 88.96V79.12C52.5116 78.5333 52.6982 78.0533 53.0716 77.68C53.4716 77.28 53.9649 77.08 54.5516 77.08C55.1382 77.08 55.6182 77.28 55.9916 77.68C56.3916 78.0533 56.5916 78.5333 56.5916 79.12V88.96C56.5916 90.4533 56.8716 91.6933 57.4316 92.68C57.9916 93.64 58.7516 94.36 59.7116 94.84C60.6716 95.2933 61.7516 95.52 62.9516 95.52C64.0982 95.52 65.1116 95.2933 65.9916 94.84C66.8982 94.3867 67.6182 93.7733 68.1516 93C68.6849 92.2267 68.9516 91.36 68.9516 90.4H71.4716C71.4716 92.0533 71.0582 93.5467 70.2316 94.88C69.4316 96.2133 68.3249 97.2667 66.9116 98.04C65.5249 98.8133 63.9382 99.2 62.1516 99.2ZM70.9916 99C70.4049 99 69.9116 98.8133 69.5116 98.44C69.1382 98.04 68.9516 97.5467 68.9516 96.96V79.12C68.9516 78.5067 69.1382 78.0133 69.5116 77.64C69.9116 77.2667 70.4049 77.08 70.9916 77.08C71.6049 77.08 72.0982 77.2667 72.4716 77.64C72.8449 78.0133 73.0316 78.5067 73.0316 79.12V96.96C73.0316 97.5467 72.8449 98.04 72.4716 98.44C72.0982 98.8133 71.6049 99 70.9916 99ZM108.937 99.04C108.351 99.04 107.857 98.8533 107.457 98.48C107.084 98.08 106.897 97.5867 106.897 97V85.56C106.897 83.88 106.484 82.64 105.657 81.84C104.831 81.0133 103.751 80.6 102.417 80.6C101.031 80.6 99.8839 81.08 98.9772 82.04C98.0972 83 97.6572 84.2267 97.6572 85.72H94.3372C94.3372 83.9867 94.7105 82.4667 95.4572 81.16C96.2039 79.8267 97.2439 78.7867 98.5772 78.04C99.9372 77.2933 101.484 76.92 103.217 76.92C104.737 76.92 106.084 77.2533 107.257 77.92C108.431 78.5867 109.337 79.5733 109.977 80.88C110.644 82.16 110.977 83.72 110.977 85.56V97C110.977 97.5867 110.791 98.08 110.417 98.48C110.044 98.8533 109.551 99.04 108.937 99.04ZM82.2572 99.04C81.6705 99.04 81.1772 98.8533 80.7772 98.48C80.4039 98.08 80.2172 97.5867 80.2172 97V79.2C80.2172 78.5867 80.4039 78.0933 80.7772 77.72C81.1772 77.3467 81.6705 77.16 82.2572 77.16C82.8705 77.16 83.3639 77.3467 83.7372 77.72C84.1105 78.0933 84.2972 78.5867 84.2972 79.2V97C84.2972 97.5867 84.1105 98.08 83.7372 98.48C83.3639 98.8533 82.8705 99.04 82.2572 99.04ZM95.6172 99.04C95.0305 99.04 94.5372 98.8533 94.1372 98.48C93.7639 98.08 93.5772 97.5867 93.5772 97V85.56C93.5772 83.88 93.1639 82.64 92.3372 81.84C91.5105 81.0133 90.4305 80.6 89.0972 80.6C87.7105 80.6 86.5639 81.08 85.6572 82.04C84.7505 83 84.2972 84.2267 84.2972 85.72H81.7772C81.7772 83.9867 82.1239 82.4667 82.8172 81.16C83.5105 79.8267 84.4705 78.7867 85.6972 78.04C86.9239 77.2933 88.3239 76.92 89.8972 76.92C91.4172 76.92 92.7639 77.2533 93.9372 77.92C95.1105 78.5867 96.0172 79.5733 96.6572 80.88C97.3239 82.16 97.6572 83.72 97.6572 85.56V97C97.6572 97.5867 97.4705 98.08 97.0972 98.48C96.7239 98.8533 96.2305 99.04 95.6172 99.04Z" fill="url(#paint0_linear_93_24)"/>
</g>
<defs>
<filter id="filter0_i_93_24" x="14.6437" y="31.96" width="96.3334" height="71.24" filterUnits="userSpaceOnUse" color-interpolation-filters="sRGB">
<feFlood flood-opacity="0" result="BackgroundImageFix"/>
<feBlend mode="normal" in="SourceGraphic" in2="BackgroundImageFix" result="shape"/>
<feColorMatrix in="SourceAlpha" type="matrix" values="0 0 0 0 0 0 0 0 0 0 0 0 0 0 0 0 0 0 127 0" result="hardAlpha"/>
<feOffset dy="4"/>
<feGaussianBlur stdDeviation="2"/>
<feComposite in2="hardAlpha" operator="arithmetic" k2="-1" k3="1"/>
<feColorMatrix type="matrix" values="0 0 0 0 0 0 0 0 0 0 0 0 0 0 0 0 0 0 0.25 0"/>
<feBlend mode="normal" in2="shape" result="effect1_innerShadow_93_24"/>
</filter>
<linearGradient id="paint0_linear_93_24" x1="64" y1="19" x2="64" y2="109" gradientUnits="userSpaceOnUse">
<stop stop-color="#98E0FF"/>
<stop offset="1" stop-color="#C8EEFF"/>
</linearGradient>
</defs>
</svg>
